# xmcd
#
# Track frame offsets:
#	150
#	15812
#	31189
#	44589
#	53493
#	73737
#	94112
#
# Disc length: 1372 seconds
#
# Revision: 1
# Processed by: cddbd v1.5.1PL0 Copyright (c) Steve Scherf et al.
# Submitted via: audiograbber 1.83.01
#
DISCID=4c055a07
DTITLE=Rrope - Mahagonny
DYEAR=1900
DGENRE=Loud shimmer
TTITLE0=Stop It
TTITLE1=Jingle Jangle
TTITLE2=Pocket Song
TTITLE3=Its A Hit
TTITLE4=Low
TTITLE5=Jonah
TTITLE6=What I Didn't Hear
EXTD=
EXTT0=
EXTT1=
EXTT2=
EXTT3=
EXTT4=
EXTT5=
EXTT6=
PLAYORDER=
